<svg id="ICONS" xmlns="http://www.w3.org/2000/svg" viewBox="0 0 400 140"><defs><style>.cls-1,.cls-16{fill:none;}.cls-1{stroke:gray;stroke-miterlimit:10;stroke-width:2px;stroke-dasharray:2 3;}.cls-2{fill:#df5c2a;}.cls-3{fill:#4d4e4e;}.cls-4{fill:#558ad8;}.cls-5{fill:#80a7e2;}.cls-6{fill:#b9d532;}.cls-7{fill:#e7edae;}.cls-8{fill:gray;}.cls-9{fill:#333;}.cls-10{fill:#1a1a1a;}.cls-11{fill:#aad2f2;}.cls-12{fill:#666;}.cls-13{fill:#b3b3b3;}.cls-14{fill:#999;}.cls-15{fill:#fff;}.cls-17{fill:#d4e8f8;}</style></defs><title>common-data-service-explore-services</title><path class="cls-1" d="M61,73.85h65.17c8.24,0,11-5.15,11-21.07,0-5.36,3.76-12.78,12.78-12.78s12.78,6.63,12.78,12.78v42.1c0,8.55,6.75,12.78,12.94,12.78s13.22-5.56,13.22-14.67c0-7.82-1.69-19,13.15-19h17"/><path class="cls-2" d="M55.44,88.26s-15.05-5.73-22.68,26C63.28,106,57.9,90.6,57.9,90.6Z"/><polygon class="cls-3" points="61.61 96.13 49.87 84.39 59.27 82.04 63.67 86.46 61.61 96.13"/><rect class="cls-3" x="59.47" y="74.91" width="6.64" height="16.6" transform="translate(-40.45 68.77) rotate(-45)"/><polygon class="cls-3" points="67.48 74.58 35.79 73.41 31.09 68.71 58.09 55.8 69.37 60.04 67.48 74.58"/><polygon class="cls-3" points="73.73 79.69 74.91 111.39 79.6 116.08 92.52 89.08 88.28 77.8 73.73 79.69"/><path class="cls-4" d="M125,21S88.53,27,73.35,42.13C57.53,57.86,54.57,75,54.57,75L71,91.43s17.13-3,32.87-18.78C119,57.47,125,21,125,21Z"/><path class="cls-5" d="M62.87,83.3,71,91.43s17.13-3,32.87-18.78C118.34,58.1,124.48,24,125,21.2Z"/><path class="cls-3" d="M125,21a170.78,170.78,0,0,0-27.74,7.48l20.26,20.26A170.78,170.78,0,0,0,125,21Z"/><circle class="cls-6" cx="92.79" cy="54.53" r="7.97"/><circle class="cls-7" cx="92.79" cy="54.53" r="5.31"/><path class="cls-4" d="M149.32,61.59a.61.61,0,0,0,.57.42l1.28,0a.66.66,0,0,0,.52-.67l.07-1.57a.91.91,0,0,1,.63-1c.21-.19.5-.27.71-.46a1.1,1.1,0,0,1,1.08.15l1.43,1a.74.74,0,0,0,.69-.07l.93-1a.68.68,0,0,0-.16-.8L156,56.28a.8.8,0,0,1-.15-1l-.09-.1a1.06,1.06,0,0,0,.33-.67c0-.39.23-.78.92-.84l1.49-.23a.78.78,0,0,0,.52-.66l-.13-1.38a.48.48,0,0,0-.57-.42l-1.57-.07a.94.94,0,0,1-1-.63c-.19-.21-.27-.5-.46-.71a1.58,1.58,0,0,1,.05-1.18l.94-1.24a.71.71,0,0,0-.06-.89l-1-.74a.6.6,0,0,0-.79,0l-1.14,1.23a1,1,0,0,1-1.09.25,3,3,0,0,0-.78-.23l-.09-.1a1,1,0,0,1-.75-.82l-.22-1.68a.61.61,0,0,0-.57-.42l-1.39.13a.48.48,0,0,0-.42.57l-.18,1.67c0,.59-.23.78-.53.86s-.5.27-.71.46a1,1,0,0,1-1.18-.05l-1.33-1a.76.76,0,0,0-.79.16l-.93,1a.87.87,0,0,0,.16.79l1.12,1.23c.38.41.46.71.15,1,0,.2-.12.49-.14.88s-.22.58-.92.65l-1.59.32a.61.61,0,0,0-.42.57l.13,1.38a.63.63,0,0,0,.47.51l1.67,0c.59,0,.78.23.86.53a8.79,8.79,0,0,1,.45.91.88.88,0,0,1,0,1.09l-1,1.33a.76.76,0,0,0,.16.79l.95.83a.6.6,0,0,0,.79,0l1.14-1.23a1,1,0,0,1,1.09-.25l.87.33c.39,0,.58.22.75.82l.32,1.59m3.86-9a3.46,3.46,0,0,1-3.12,3.6,3.21,3.21,0,0,1-3.6-3.12,3.3,3.3,0,0,1,3-3.5,3.34,3.34,0,0,1,3.7,3"/><path class="cls-5" d="M175.07,103.41a.61.61,0,0,0,.57.42l1.28,0a.66.66,0,0,0,.52-.67l.07-1.57a.91.91,0,0,1,.63-1c.21-.19.5-.27.71-.46a1.1,1.1,0,0,1,1.08.15l1.43,1a.74.74,0,0,0,.69-.07l.93-1a.68.68,0,0,0-.16-.8l-1.12-1.23a.8.8,0,0,1-.15-1l-.09-.1a1.06,1.06,0,0,0,.33-.67c0-.39.23-.78.92-.84l1.49-.23a.78.78,0,0,0,.52-.66l-.13-1.38a.48.48,0,0,0-.57-.42l-1.57-.07a.94.94,0,0,1-1-.63c-.19-.21-.27-.5-.46-.71a1.58,1.58,0,0,1,.05-1.18L182,89a.71.71,0,0,0-.06-.89l-1-.74a.6.6,0,0,0-.79,0L179,88.53a1,1,0,0,1-1.09.25,3,3,0,0,0-.78-.23l-.09-.1a1,1,0,0,1-.75-.82l-.22-1.68a.61.61,0,0,0-.57-.42l-1.39.13a.48.48,0,0,0-.42.57l-.18,1.67c0,.59-.23.78-.53.86s-.5.27-.71.46a1,1,0,0,1-1.18-.05l-1.33-1a.76.76,0,0,0-.79.16l-.93,1a.87.87,0,0,0,.16.79l1.12,1.23c.38.41.46.71.15,1,0,.2-.12.49-.14.88s-.22.58-.92.65l-1.59.32a.61.61,0,0,0-.42.57l.13,1.38a.63.63,0,0,0,.47.51l1.67,0c.59,0,.78.23.86.53a8.79,8.79,0,0,1,.45.91.88.88,0,0,1,0,1.09l-1,1.33a.76.76,0,0,0,.16.79l.95.83a.6.6,0,0,0,.79,0l1.14-1.23a1,1,0,0,1,1.09-.25l.87.33c.39,0,.58.22.75.82l.32,1.59m3.86-9a3.46,3.46,0,0,1-3.12,3.6,3.21,3.21,0,0,1-3.6-3.12,3.3,3.3,0,0,1,3-3.5,3.34,3.34,0,0,1,3.7,3"/><polygon class="cls-8" points="352 125 235 125 242.32 117 345.15 117 352 125"/><polygon class="cls-9" points="341 123 246 123 249.34 118 337.76 118 341 123"/><path class="cls-10" d="M347.37,128H240.3c-4.95,0-5-2.91-5-2.91H352S352.58,128,347.37,128Z"/><polygon class="cls-9" points="303 111.5 283 111.5 285 97.5 301 97.5 301.14 98.5 303 111.5"/><polygon class="cls-10" points="303 111.5 293 111.5 293 98.5 301.14 98.5 303 111.5"/><rect class="cls-9" x="217" y="15" width="153" height="84" rx="4" ry="4"/><rect class="cls-11" x="221" y="19" width="145" height="76"/><path class="cls-9" d="M322.79,115H264.21a2.12,2.12,0,0,1-2.21-2s3.74-3,3.92-3h54.16c2.25,0,4.92,3,4.92,3A2.12,2.12,0,0,1,322.79,115Z"/><polygon class="cls-12" points="306 32 263 32 263 86 295 86 327 86 327 32 306 32"/><path class="cls-13" d="M318,28V79H301a7.08,7.08,0,0,0-5,2.68A9.54,9.54,0,0,0,295,83a9.54,9.54,0,0,0-1-1.32A7.08,7.08,0,0,0,289,79H272V28h17c2.69,0,4.18.88,5,1.79l.18.21a3.76,3.76,0,0,1,.82,1.78,3.76,3.76,0,0,1,.82-1.78l.18-.21c.82-.91,2.31-1.79,5-1.79Z"/><path class="cls-14" d="M318,79H301a7.08,7.08,0,0,0-5,2.68A9.54,9.54,0,0,0,295,83a9.54,9.54,0,0,0-1-1.32A7.08,7.08,0,0,0,289,79H272V33Z"/><path class="cls-15" d="M296,29.79V81.68A9.54,9.54,0,0,0,295,83a9.54,9.54,0,0,0-1-1.32V29.79l.18.21a3.76,3.76,0,0,1,.82,1.78,3.76,3.76,0,0,1,.82-1.78Z"/><rect class="cls-16" x="263" y="25" width="64" height="64"/><polygon class="cls-17" points="366 19 366 57 328 19 366 19"/></svg>