<svg xmlns="http://www.w3.org/2000/svg" viewBox="0 0 400 140"><defs><style>.cls-1{isolation:isolate;}.cls-10,.cls-2,.cls-6,.cls-8{fill:none;stroke-miterlimit:10;}.cls-2{stroke:#909090;stroke-dasharray:2 2;}.cls-3{fill:#bad80a;}.cls-4{fill:#d1e55c;}.cls-5{fill:#0078d7;}.cls-6{stroke:#0050c5;}.cls-10,.cls-6{stroke-width:2px;}.cls-7{fill:#0050c5;}.cls-8{stroke:#4d4d4d;}.cls-9{fill:#4d4d4d;}.cls-10{stroke:#d4e8f8;}.cls-11,.cls-14{fill:#543b76;}.cls-12{fill:#7750a3;}.cls-13{fill:#ae96c8;}.cls-14{mix-blend-mode:multiply;}.cls-15{fill:#f2f2f2;}</style></defs><title>common-data-service-getting-data</title><g class="cls-1"><g id="ICONS"><polyline class="cls-2" points="103.69 82.03 151.64 47.04 199.59 84.63 248.75 47 296 82.8"/><polygon class="cls-3" points="182.61 118.82 165.11 88.51 182.61 58.2 217.61 58.2 235.11 88.51 217.61 118.82 182.61 118.82"/><path class="cls-3" d="M315,70.17V95.84a6.16,6.16,0,0,1-6.16,6.16H283.17A6.16,6.16,0,0,1,277,95.84V70.17A6.15,6.15,0,0,1,283.17,64h25.67A6.16,6.16,0,0,1,315,70.17Z"/><path class="cls-4" d="M315,70.17V85L294,64h14.83A6.16,6.16,0,0,1,315,70.17Z"/><circle class="cls-5" cx="247.5" cy="45.5" r="21.5"/><circle class="cls-5" cx="151.5" cy="45.5" r="21.5"/><path class="cls-3" d="M122,70.17V95.84a6.16,6.16,0,0,1-6.16,6.16H90.17A6.16,6.16,0,0,1,84,95.84V70.17A6.15,6.15,0,0,1,90.17,64h25.67A6.16,6.16,0,0,1,122,70.17Z"/><path class="cls-4" d="M122,70.17V85L101,64h14.83A6.16,6.16,0,0,1,122,70.17Z"/><line class="cls-6" x1="88" y1="76.12" x2="115.83" y2="76.12"/><polygon class="cls-7" points="109.2 84.3 107.84 82.84 115.06 76.13 107.84 69.41 109.2 67.94 118 76.13 109.2 84.3"/><line class="cls-6" x1="118" y1="89.12" x2="90.17" y2="89.12"/><polygon class="cls-7" points="96.8 80.94 98.16 82.41 90.94 89.12 98.16 95.84 96.8 97.3 88 89.12 96.8 80.94"/><path class="cls-8" d="M311,32.48c-27.59-11.29-67.11-18.35-111-18.35-40.74,0-77.71,6.09-104.87,16"/><path class="cls-9" d="M100.07,23.41a.5.5,0,0,1,.08.7l-4.79,6,7.43,1.82a.5.5,0,0,1-.24,1l-8.19-2a.5.5,0,0,1-.27-.8l5.29-6.57a.5.5,0,0,1,.7-.08Z"/><path class="cls-8" d="M224,127.41c72-4.34,127-27.89,127-56.28,0-10.32-7.26-20-20-28.35"/><path class="cls-9" d="M339.36,42.72a.5.5,0,0,1-.52.48l-7.65-.27,3,7a.5.5,0,0,1-.92.39L330,42.6a.5.5,0,0,1,.48-.7l8.43.3a.5.5,0,0,1,.48.52Z"/><path class="cls-8" d="M61,48.82c-7.73,6.85-12,14.39-12,22.31,0,30.07,61.7,54.71,139.92,56.85"/><polygon class="cls-9" points="185.43 131.9 184.78 131.14 188.53 127.94 185.07 124.43 185.78 123.73 190 128 185.43 131.9"/><line class="cls-6" x1="285" y1="72" x2="307" y2="72"/><line class="cls-6" x1="285" y1="79" x2="307" y2="79"/><line class="cls-6" x1="285" y1="86" x2="307" y2="86"/><line class="cls-6" x1="285" y1="93" x2="307" y2="93"/><path class="cls-10" d="M233.86,43.11a14.41,14.41,0,0,1,27.77-.23"/><polyline class="cls-10" points="262 34 262 43 253 43"/><path class="cls-10" d="M261.75,47.74A14.41,14.41,0,0,1,234,48"/><polyline class="cls-10" points="233 56 233 48 241 48"/><path class="cls-11" d="M218,71.73v33.65c0,1.81-2.07,3.43-5.42,4.61a40.25,40.25,0,0,1-12.58,1.9h-.5v.1h-.32c-10.09-.11-18.18-3.07-18.18-6.61V71.73Z"/><path class="cls-12" d="M218,71.73v33.65c0,1.81-2.07,3.43-5.42,4.61a40.25,40.25,0,0,1-12.58,1.9V71.73Z"/><path class="cls-13" d="M218,71.48c0,3.58-8.28,6.48-18.5,6.48S181,75.06,181,71.48,189.53,65,199.75,65,218,67.9,218,71.48"/><path class="cls-12" d="M212.56,71.44c0,.56-.47,1.09-1.3,1.56a7.22,7.22,0,0,1-1.11.5,38.13,38.13,0,0,1-21.18,0,7.22,7.22,0,0,1-1.11-.5c-.83-.47-1.3-1-1.3-1.56,0-2,5.82-3.56,13-3.56S212.56,69.47,212.56,71.44Z"/><path class="cls-14" d="M210.15,73.5a38.13,38.13,0,0,1-21.18,0,38.13,38.13,0,0,1,21.18,0Z"/><path class="cls-15" d="M151,61.29A1.14,1.14,0,0,0,152,62l2.31-.12a1.14,1.14,0,0,0,.92-1.23l.07-2.83a1.65,1.65,0,0,1,1-1.76c.36-.35.9-.52,1.26-.84a2,2,0,0,1,2,.22l2.63,1.66a1.34,1.34,0,0,0,1.22-.16L165.11,55a1.18,1.18,0,0,0-.32-1.43l-2-2.16a1.44,1.44,0,0,1-.32-1.79s.76-2.83,2-3l2.67-.47A1.41,1.41,0,0,0,168,45l-.3-2.5a.87.87,0,0,0-1-.74h-.07l-2.85-.06a1.69,1.69,0,0,1-1.75-1.1c-.35-.36-.52-.9-.85-1.25a2.84,2.84,0,0,1,.11-2.13L163,34.94a1.28,1.28,0,0,0-.15-1.6l-1.93-1.29a1.14,1.14,0,0,0-1.42,0l-2,2.25c-.5.55-1.44,1.37-3.39.11,0,0-1.44-.95-1.58-1.66l-.42-3A1.14,1.14,0,0,0,151,29l-2.5.3a.87.87,0,0,0-.69,1v0l-.25,3c0,1.06-.37,1.42-.93,1.58-.36.35-.9.52-1.26.84a1.86,1.86,0,0,1-2.13-.05l-2.45-1.81a1.39,1.39,0,0,0-1.43.32l-1.67,1.91a1.57,1.57,0,0,0,.32,1.43l2.08,2.18c.69.72,1,1.4.09,3.38-.14.54-.39,1.07-1.63,1.21l-2.86.65A1.14,1.14,0,0,0,135,46l.3,2.5a1.14,1.14,0,0,0,.87.91l3-.1c1.06,0,1.42.37,1.58.93a15.9,15.9,0,0,1,.84,1.62,1.59,1.59,0,0,1,.12,1.91l-1.81,2.45a1.37,1.37,0,0,0,.32,1.42L142,59.11a1.14,1.14,0,0,0,1.42,0l2-2.26a1.81,1.81,0,0,1,2-.46s2.85.24,3,2l.64,2.85m6.62-16.35a6.24,6.24,0,0,1-5.49,6.62,5.8,5.8,0,0,1-6.56-4.92q0-.28-.05-.56a6,6,0,0,1,5.3-6.44,6,6,0,0,1,6.81,5.16l0,.15"/></g></g></svg>