<svg id="ICONS" xmlns="http://www.w3.org/2000/svg" viewBox="0 0 400 140"><defs><style>.cls-1,.cls-6,.cls-7,.cls-9{fill:none;}.cls-1{stroke:#757575;}.cls-1,.cls-19,.cls-6,.cls-9{stroke-miterlimit:10;}.cls-2{fill:#757575;}.cls-3{fill:#0078d7;}.cls-4{fill:#5d5f5e;}.cls-5{fill:#414042;}.cls-6{stroke:#334d63;}.cls-19,.cls-6,.cls-9{stroke-width:2px;}.cls-8{fill:#58595b;}.cls-19,.cls-9{stroke:#666;}.cls-10{fill:#4d4d4d;}.cls-11{fill:#c0c8d4;}.cls-12{fill:#cce24a;}.cls-13,.cls-19{fill:#80bceb;}.cls-14{fill:#7750a3;}.cls-15{fill:#4d4e4e;}.cls-16{fill:#e8f2ad;}.cls-17{fill:#fff;}.cls-18{fill:#d4e8f8;}.cls-19{stroke-dasharray:3 3;}.cls-20{fill:#6d6e71;}.cls-21{fill:#1772b8;}.cls-22{fill:#2a6dcf;}.cls-23{fill:#558ad8;}.cls-24{fill:#333;}.cls-25{fill:gray;}.cls-26{fill:#666;}</style></defs><title>common-data-service-building</title><polyline class="cls-1" points="78.01 22.45 84.92 15.54 127.86 15.54 134.45 22.13"/><line class="cls-1" x1="94.5" y1="21.29" x2="94.5" y2="15.79"/><line class="cls-1" x1="87.5" y1="21.29" x2="87.5" y2="15.79"/><line class="cls-1" x1="101.5" y1="21.25" x2="101.5" y2="15.75"/><line class="cls-1" x1="115.5" y1="21.25" x2="115.5" y2="15.75"/><line class="cls-1" x1="108.5" y1="21.25" x2="108.5" y2="15.75"/><line class="cls-1" x1="122.5" y1="21.25" x2="122.5" y2="15.75"/><polygon class="cls-2" points="67.84 8.07 68.91 7.76 73.64 21.36 72.27 21.36 67.84 8.07"/><line class="cls-1" x1="67.5" y1="8.5" x2="67.5" y2="23"/><path class="cls-2" d="M69.06,8.07a.85.85,0,0,1-.92.76.72.72,0,0,1-.76-.76.72.72,0,0,1,.76-.76.85.85,0,0,1,.92.76"/><polygon class="cls-2" points="76 32 75.1 32 70.91 35.82 66.74 32 65.91 32 65.91 32.59 70.17 36.5 65.91 40.41 65.91 41 66.74 41 70.91 37.18 75.1 41 76 41 76 40.47 71.64 36.5 76 32.53 76 32"/><rect class="cls-2" x="65" y="31" width="1" height="95"/><rect class="cls-2" x="76" y="32" width="1" height="93"/><line class="cls-1" x1="66" y1="42" x2="76" y2="51"/><line class="cls-1" x1="76" y1="42" x2="66" y2="51"/><line class="cls-1" x1="76" y1="61" x2="66" y2="52"/><line class="cls-1" x1="76" y1="52" x2="66" y2="61"/><line class="cls-1" x1="66" y1="62" x2="76" y2="71"/><line class="cls-1" x1="76" y1="62" x2="66" y2="71"/><line class="cls-1" x1="66" y1="72" x2="76" y2="81"/><line class="cls-1" x1="76" y1="72" x2="66" y2="81"/><line class="cls-1" x1="66" y1="82" x2="76" y2="91"/><line class="cls-1" x1="76" y1="82" x2="66" y2="91"/><line class="cls-1" x1="66" y1="92" x2="76" y2="101"/><line class="cls-1" x1="76" y1="92" x2="66" y2="101"/><line class="cls-1" x1="66" y1="102" x2="76" y2="111"/><line class="cls-1" x1="76" y1="102" x2="66" y2="111"/><polyline class="cls-1" points="88 16 94.5 21 101.5 16 108.5 21 115.5 16 122.5 21 128 16"/><rect class="cls-3" x="49" y="21.02" width="101" height="1.96"/><path class="cls-4" d="M146.5,21.11c-.35,0-.5.31-.5.61V22h-6v-.28c0-.31-.15-.61-.5-.61s-.5.31-.5.61V26h8V21.72C147,21.42,146.85,21.11,146.5,21.11Z"/><polyline class="cls-1" points="51.56 20.11 68.14 8.37 114.61 15.56"/><rect class="cls-5" x="47" y="19" width="6" height="11"/><line class="cls-1" x1="66" y1="51.5" x2="76" y2="51.5"/><line class="cls-1" x1="66" y1="41.5" x2="76" y2="41.5"/><line class="cls-1" x1="66" y1="31.5" x2="76" y2="31.5"/><polygon class="cls-3" points="78.44 22 64.09 22 64.09 32 78.44 32 81 27 78.44 22"/><line class="cls-6" x1="71" y1="24" x2="71" y2="30"/><line class="cls-6" x1="75" y1="24" x2="75" y2="30"/><line class="cls-1" x1="66" y1="61.5" x2="76" y2="61.5"/><line class="cls-1" x1="66" y1="71.5" x2="76" y2="71.5"/><line class="cls-1" x1="66" y1="81.5" x2="76" y2="81.5"/><line class="cls-1" x1="66" y1="91.5" x2="76" y2="91.5"/><line class="cls-1" x1="66" y1="101.5" x2="76" y2="101.5"/><line class="cls-1" x1="66" y1="110.5" x2="76" y2="119.5"/><line class="cls-1" x1="76" y1="110.5" x2="66" y2="119.5"/><line class="cls-1" x1="66" y1="110.5" x2="76" y2="110.5"/><line class="cls-1" x1="66" y1="119.5" x2="76" y2="119.5"/><rect class="cls-7" x="34" y="1" width="111" height="136"/><polygon class="cls-5" points="95 136 47 136 49.58 130 52.15 124 89.85 124 92.43 130 95 136"/><polygon class="cls-8" points="95 136 47 136 49.58 130 92.43 130 95 136"/><line class="cls-9" x1="143" y1="25" x2="143" y2="58"/><g id="Completed_Icons" data-name="Completed Icons"><polygon class="cls-10" points="167 57 119 57 119 103 141 103 141 99 123 99 123 61 163 61 163 78 167 78 167 57"/><rect class="cls-10" x="145" y="82" width="27" height="27"/><rect class="cls-10" x="145" y="65" width="14" height="13"/><rect class="cls-10" x="127" y="65" width="14" height="13"/><rect class="cls-10" x="127" y="82" width="14" height="13"/></g><polygon class="cls-11" points="286.65 20 257.55 20 243 45 257.55 70 286.65 70 301.2 45 286.65 20"/><polygon class="cls-11" points="286.45 72 257.35 72 242.8 97 257.35 122 286.45 122 301 97 286.45 72"/><polygon class="cls-12" points="237.97 40.05 202.76 40.05 184.7 71 202.3 101 237.51 101 255.12 71 237.97 40.05"/><polygon class="cls-13" points="308.09 103.85 289.12 71 308.09 38.15 346.02 38.15 364.98 71 346.02 103.85 308.09 103.85"/><path class="cls-14" d="M267,25.1v7.2l-3,1.8-3-1.8V25.1c-2,1.05-5.4,4-5.4,7.2,0,3.6,3.4,6.16,5.4,7.2V63.8a3,3,0,0,0,6,0V39.5c2-1,5.4-3.6,5.4-7.2C272.4,29.15,269,26.15,267,25.1Z"/><path class="cls-15" d="M281,43.1V33.2l1.95-2.85L280.85,23H279l-2,7.35,2,2.85v9.9a3.33,3.33,0,0,0-3,3V63.8c0,1.1,1.47,3.2,2.82,3.2h2.25c1.35,0,2.92-2.1,2.93-3.2V46.1A3.33,3.33,0,0,0,281,43.1Z"/><rect class="cls-16" x="281" y="45" width="1" height="20"/><rect class="cls-16" x="278" y="45" width="1" height="20"/><circle class="cls-17" cx="264" cy="63.5" r="1.5"/><polygon class="cls-18" points="319 62 319 79 306 79 306 49 336 49 336 62 319 62"/><rect class="cls-19" x="320.12" y="62.85" width="29.16" height="29.16" rx="2" ry="2"/><rect class="cls-20" x="201" y="47" width="2" height="2"/><rect class="cls-21" x="204" y="47" width="3" height="2"/><rect class="cls-20" x="209" y="47" width="30" height="2"/><rect class="cls-20" x="201" y="51" width="2" height="2"/><rect class="cls-21" x="204" y="51" width="3" height="2"/><rect class="cls-20" x="209" y="51" width="18" height="2"/><rect class="cls-20" x="201" y="55" width="2" height="2"/><rect class="cls-21" x="204" y="55" width="3" height="2"/><rect class="cls-21" x="200" y="77" width="3" height="2"/><rect class="cls-21" x="200" y="81" width="3" height="2"/><rect class="cls-20" x="209" y="55" width="20" height="2"/><rect class="cls-20" x="201" y="59" width="2" height="2"/><rect class="cls-14" x="205" y="59" width="36" height="2"/><rect class="cls-14" x="205" y="63" width="36" height="2"/><rect class="cls-14" x="205" y="67" width="24" height="2"/><rect class="cls-20" x="231" y="67" width="16" height="2"/><rect class="cls-14" x="205" y="71" width="34.9" height="2"/><rect class="cls-20" x="205" y="77" width="9" height="2"/><rect class="cls-20" x="205" y="81" width="20" height="2"/><rect class="cls-21" x="205" y="85" width="32" height="2"/><rect class="cls-21" x="205" y="89" width="32" height="2"/><rect class="cls-20" x="205" y="93" width="24" height="2"/><path class="cls-22" d="M291,96.5a19.49,19.49,0,1,1-5.71-13.79A19.5,19.5,0,0,1,291,96.5Z"/><path class="cls-23" d="M291,96.5a19.5,19.5,0,0,1-33.29,13.79l27.58-27.58A19.44,19.44,0,0,1,291,96.5Z"/><polygon class="cls-24" points="282.88 107.88 267.44 99.75 260.13 85.13 274.75 92.44 282.88 107.88"/><rect class="cls-17" x="271" y="79" width="1" height="5"/><rect class="cls-17" x="271" y="109" width="1" height="5"/><rect class="cls-17" x="256.5" y="93.5" width="1" height="6" transform="translate(160.5 353.5) rotate(-90)"/><rect class="cls-17" x="285.5" y="93.5" width="1" height="6" transform="translate(189.5 382.5) rotate(-90)"/><polygon class="cls-25" points="282.88 107.88 260.13 85.13 274.75 92.44 282.88 107.88"/><circle class="cls-17" cx="271.5" cy="96.5" r="1.63"/><path class="cls-26" d="M334,48H308a3,3,0,0,0-3,3V77a3,3,0,0,0,3,3h11V78H308a1,1,0,0,1-1-1V51a1,1,0,0,1,1-1h26a1,1,0,0,1,1,1V62h2V51A3,3,0,0,0,334,48Z"/></svg>