<svg id="ICONS" xmlns="http://www.w3.org/2000/svg" viewBox="0 0 400 140"><defs><style>.cls-1{fill:gray;}.cls-2{fill:#2e2e2e;}.cls-3{fill:#1a1a1a;}.cls-4{fill:#2b8fde;}.cls-5{fill:#0078d7;}.cls-6,.cls-7{fill:none;stroke-miterlimit:10;stroke-width:2px;}.cls-6{stroke:#ddec85;}.cls-7{stroke:#f1f2f2;}.cls-8{fill:#221f1f;}.cls-9{fill:#80bceb;}.cls-10{fill:#aad2f2;}.cls-11{fill:#444545;}.cls-12{fill:#bad80a;}.cls-13{fill:#ddec85;}.cls-14{fill:#4d4d4d;}.cls-15{fill:#666;}</style></defs><title>common-data-service-trustworthy-platform</title><polygon class="cls-1" points="255 126 138 126 145.32 118 248.15 118 255 126"/><polygon class="cls-2" points="244 124 149 124 152.34 119 240.76 119 244 124"/><path class="cls-3" d="M250.37,129H143.3c-4.95,0-5-2.91-5-2.91H255S255.58,129,250.37,129Z"/><polygon class="cls-3" points="206 111.5 186 111.5 188 97.5 204 97.5 204.14 98.5 206 111.5"/><polygon class="cls-2" points="206 111.5 196 111.5 196 98.5 204.14 98.5 206 111.5"/><path class="cls-2" d="M225.79,115H167.21a2.12,2.12,0,0,1-2.21-2s3.74-3,3.92-3h54.16c2.25,0,4.92,3,4.92,3A2.12,2.12,0,0,1,225.79,115Z"/><path class="cls-4" d="M137,66.44v43.94a4.63,4.63,0,0,1-4.61,4.62H88.61A4.63,4.63,0,0,1,84,110.38V45.62A4.63,4.63,0,0,1,88.61,41h23l.35.35L136.56,66Z"/><path class="cls-5" d="M129.4,115H88.61A4.63,4.63,0,0,1,84,110.38V69.59Z"/><polygon class="cls-5" points="137 66.85 137 67 112 67 112 41.76 137 66.85"/><polyline class="cls-6" points="92 104 96 108 106 98"/><polyline class="cls-6" points="92 88 96 92 106 82"/><polyline class="cls-6" points="92 72 96 76 106 66"/><line class="cls-7" x1="106" y1="106" x2="129" y2="106"/><line class="cls-7" x1="106" y1="90" x2="129" y2="90"/><line class="cls-7" x1="106" y1="74" x2="129" y2="74"/><path class="cls-8" d="M226,55c0-13.78,29-29,43-28.43,1.33.05,2.64-.44,4-.52V20a4,4,0,0,0-4-4H124a4,4,0,0,0-4,4V46.55l4,4L141,51l7,45h-9v4H269a4,4,0,0,0,4-4V82.95a28.43,28.43,0,0,1-4-.52C256,79.8,226,68.77,226,55Z"/><path class="cls-9" d="M246.15,54.51A28.55,28.55,0,0,1,269,26.56V20H124V50.56l15,15.05V96H269V82.43A28.55,28.55,0,0,1,246.15,54.51Z"/><path class="cls-10" d="M269,26.56V20H230l20.08,20.08A28.58,28.58,0,0,1,269,26.56Z"/><path class="cls-11" d="M323.86,100l0,.13a4.92,4.92,0,0,1-4.82,3.7,4.93,4.93,0,0,1-3.53-1.45L293.72,80.63l-2.11-2.11a5,5,0,0,1,2.25-8.35l.33-.08a5,5,0,0,1,4.49,1.36l23.87,23.87A5,5,0,0,1,323.86,100Z"/><path class="cls-1" d="M323.86,100,294.19,70.09a5,5,0,0,1,4.49,1.36l23.87,23.87A5,5,0,0,1,323.86,100Z"/><path class="cls-11" d="M274.64,28a26.49,26.49,0,1,0,26.51,26.49A26.53,26.53,0,0,0,274.64,28Z"/><path class="cls-12" d="M297.15,54.49c0,.51,0,1-.06,1.51a22.52,22.52,0,0,1-22.43,21h0a22.52,22.52,0,0,1-22.44-21c0-.49-.06-1-.06-1.49a22.5,22.5,0,1,1,45,0Z"/><polygon class="cls-13" points="306.54 79.31 299.02 85.93 293.72 80.63 301.24 74.01 306.54 79.31"/><path class="cls-13" d="M297.15,54.49c0,.51,0,1-.06,1.51H252.21c0-.49-.06-1-.06-1.49a22.5,22.5,0,1,1,45,0Z"/><path class="cls-14" d="M218,43.7c0,26.37-16.41,36.36-21,38.3-4.59-1.94-21-11.93-21-38.3,0-2.6,2-1.52,2-1.52,2.23,1,4.88,2.22,8,1.82,6.89-.9,7.5-6.87,11-7,3.5.13,4.11,6.1,11,7,3.07.4,5.72-.8,8-1.82C216,42.18,218,41.1,218,43.7Z"/><path class="cls-15" d="M218,43.7c0,26.37-16.41,36.36-21,38.3V37c3.5.13,4.11,6.1,11,7,3.07.4,5.72-.8,8-1.82C216,42.18,218,41.1,218,43.7Z"/></svg>