<svg id="ICONS" xmlns="http://www.w3.org/2000/svg" viewBox="0 0 400 140"><defs><style>.cls-1{fill:#e6e6e6;}.cls-2,.cls-8{fill:none;}.cls-2{stroke:#0050c5;stroke-miterlimit:10;stroke-width:4px;}.cls-3{fill:#1a1a1a;}.cls-4{fill:#333;}.cls-5{fill:#ccc;}.cls-6,.cls-9{fill:#0078d7;}.cls-7{fill:#55a5e4;}.cls-10,.cls-11,.cls-17,.cls-9{fill-rule:evenodd;}.cls-10{fill:#666;}.cls-11{fill:#5e5e5e;}.cls-12{fill:#5c2d91;}.cls-13{fill:gray;}.cls-14{fill:#7750a3;}.cls-15{fill:#231f20;}.cls-16{fill:#b3b3b3;}.cls-17{fill:#2b8fde;}.cls-18{fill:#2b978a;}.cls-19{fill:#008272;}</style></defs><title>common-data-service-isv</title><path class="cls-1" d="M278,105H28a13.28,13.28,0,0,1-9-12c-.47-9.47,10-16,10-16H278Z"/><path class="cls-1" d="M190,77s16,2,18-4,0-30,0-30,2-12,11-13,17,6,18,12,0,28,0,28,4,6,9,7,9,8,9,8l-9,3-57,1Z"/><path class="cls-2" d="M79,140V113.18c0-5-3.35-7.18-7.31-7.18H34.78C25.94,106,19,101.26,19,91.87,19,84.13,24.57,77,33,77H198c5.25,0,10.13-1.35,10.13-9.09l-.55-22.2c0-12.71,8.11-15.9,14-15.9s15.29,2.72,15.29,14.34c0,13.72.55,19.39.55,23.17,0,7.16,5.06,9.69,9.55,9.69h32"/><polygon class="cls-3" points="162 72 150 72 150.92 63 161.08 63 162 72"/><polygon class="cls-4" points="162 72 156 72 156 63 161.08 63 162 72"/><rect class="cls-3" x="121" y="24" width="70" height="40" rx="3" ry="3"/><rect class="cls-5" x="138" y="11" width="36" height="66" transform="translate(200 -112) rotate(90)"/><polygon class="cls-1" points="189 26 189 45 170 26 189 26"/><path class="cls-4" d="M171.65,72h-31.3c-.11,0-2.35,1.8-2.35,1.8a1.27,1.27,0,0,0,1.32,1.2h33.35A1.27,1.27,0,0,0,174,73.8S171.76,72,171.65,72Z"/><rect class="cls-6" x="131" y="35" width="14" height="14"/><rect class="cls-7" x="134" y="38" width="8" height="8"/><rect class="cls-6" x="149" y="35" width="14" height="14"/><rect class="cls-7" x="152" y="38" width="8" height="8"/><rect class="cls-6" x="167" y="35" width="14" height="14"/><rect class="cls-7" x="170" y="38" width="8" height="8"/><path class="cls-6" d="M124.4,56.82A10.12,10.12,0,0,0,122.88,52a9.61,9.61,0,0,0-7-4.19c-2.93-.34-4.91-.4-9.47-.8v0c0,1-2.15,1.85-4.81,1.85S96.74,48,96.74,47v-.12c-4.37.37-7.74.81-11,1.36a19.2,19.2,0,0,0-3,.71c-2.23.75-3.36,2-4.9,5.1-3,5.89-9,18.18-9,18.21-3.13,6.62-3.06,8.73,4,12.2,1.7.84,18.17,12.07,18.17,12.07L111.38,99h6l.33-15,.36-16.13L118.2,64S124.89,63.82,124.4,56.82Z"/><rect class="cls-8" x="74.09" y="65.72" width="53.87" height="86.51"/><path class="cls-9" d="M147.72,83c-3.94,0-21.37,0-21.37,0s-4.23-8.11-8.24-15.12c-1.34-2.35-2.66-4.59-3.78-6.34-2.58-4,7.17-8.91,8.55-9.57l.16-.08,10.11,21.24s9.86,3,14.85,4C148,78.7,149,81,147.72,83Z"/><path class="cls-10" d="M92.21,109.07c1.23,0,7.92.26,9.26.32l.18,3.61h11.94c0-1.53,0-2.93.12-4.19h3.43q.17,1.89.32,4.19H129v-7.85S126.09,95,118,95H84.74S83.37,108.91,92.21,109.07Z"/><path class="cls-11" d="M118,112s1.61,17.46,2.36,28H129l-.08-28Z"/><polygon class="cls-11" points="117.09 112 106.31 112 109 140 117.38 140 117.09 112"/><path class="cls-12" d="M129.51,113h-52c-5.83,0-7.4-3.83-7.12-7,.53-6.07,3.36-32.47,4.37-40a3.84,3.84,0,0,1,2-3.2,8.46,8.46,0,0,1,4-.72h20.78c3.45,0,4.77,2.58,5.17,7.43.22,2.74,1.36,15.57,2.24,25.46C109.48,101.56,110,106,110,106h14.29C130.08,106,129.51,113,129.51,113Z"/><path class="cls-6" d="M112.08,33.08a14.34,14.34,0,0,1-.75,4.6c-1.55,4.55-5.33,7.77-9.75,7.77-5.79,0-10.5-5.54-10.5-12.37a12.84,12.84,0,0,1,5.48-10.87,9.18,9.18,0,0,1,5-1.51C107.38,20.7,112.08,26.24,112.08,33.08Z"/><rect class="cls-13" x="263" y="59" width="111" height="70"/><polygon class="cls-12" points="369 29.99 268 29.69 257.91 60.99 379.09 60.99 369 29.99"/><rect class="cls-14" x="291" y="29" width="11" height="32"/><rect class="cls-14" x="313" y="29" width="11" height="32"/><path class="cls-12" d="M269,61v4.52a5.09,5.09,0,0,0,5,5.15h1a5.09,5.09,0,0,0,5-5.15V61Z"/><path class="cls-12" d="M291,61v4.52a5.09,5.09,0,0,0,5,5.15h1a5.09,5.09,0,0,0,5-5.15V61Z"/><path class="cls-12" d="M313,61v4.52a5.09,5.09,0,0,0,5,5.15h1a5.09,5.09,0,0,0,5-5.15V61Z"/><path class="cls-12" d="M335,61v4.52a5.09,5.09,0,0,0,5,5.15h1a5.09,5.09,0,0,0,5-5.15V61Z"/><path class="cls-15" d="M280,61v4.52a5.09,5.09,0,0,0,5,5.15h1a5.09,5.09,0,0,0,5-5.15V61Z"/><path class="cls-15" d="M258,61v4.52a5.09,5.09,0,0,0,5,5.15h1a5.09,5.09,0,0,0,5-5.15V61Z"/><path class="cls-15" d="M302,61v4.52a5.09,5.09,0,0,0,5,5.15h1a5.09,5.09,0,0,0,5-5.15V61Z"/><path class="cls-15" d="M324,61v4.52a5.09,5.09,0,0,0,5,5.15h1a5.09,5.09,0,0,0,5-5.15V61Z"/><path class="cls-15" d="M346,61v4.52a5.09,5.09,0,0,0,5,5.15h1a5.09,5.09,0,0,0,5-5.15V61Z"/><rect class="cls-14" x="335" y="29" width="11" height="32"/><path class="cls-12" d="M357,61v4.52a5.09,5.09,0,0,0,5,5.15h1a5.09,5.09,0,0,0,5-5.15V61Z"/><rect class="cls-14" x="357" y="29" width="11" height="32"/><path class="cls-15" d="M346,61v4.52a5.09,5.09,0,0,0,5,5.15h1a5.09,5.09,0,0,0,5-5.15V61Z"/><path class="cls-15" d="M368,61v4.52a5.09,5.09,0,0,0,5,5.15h1a5.09,5.09,0,0,0,5-5.15V61Z"/><rect class="cls-12" x="346" y="29" width="11" height="32"/><rect class="cls-14" x="269" y="29" width="11" height="32"/><rect class="cls-15" x="266" y="27" width="105" height="3" rx="1" ry="1"/><rect class="cls-16" x="277" y="81" width="31" height="22"/><rect class="cls-16" x="334" y="81" width="30" height="46"/><rect class="cls-15" x="256" y="127" width="125" height="3" rx="1" ry="1"/><path class="cls-12" d="M47.63,90.16l-2.78-.31a.5.5,0,0,1-.43-.4,8.24,8.24,0,0,0-.74-2,.54.54,0,0,1,.07-.59l1.74-2.15a.54.54,0,0,0,0-.72L44,82.57a.54.54,0,0,0-.72,0l-2.09,1.68a.53.53,0,0,1-.6,0,8.28,8.28,0,0,0-1.85-.81.53.53,0,0,1-.37-.46l-.3-2.68c0-.27-.26-.37-.53-.37H35.46c-.27,0-.5.1-.53.37L34.64,83a.51.51,0,0,1-.41.44,8.24,8.24,0,0,0-2.06.84.53.53,0,0,1-.6,0L29.5,82.53a.54.54,0,0,0-.72,0L27.33,84a.54.54,0,0,0,0,.72L29,86.84a.53.53,0,0,1,0,.59,8.28,8.28,0,0,0-.79,2,.54.54,0,0,1-.47.4l-2.67.3a.48.48,0,0,0-.4.53v2.05a.48.48,0,0,0,.4.53L28,93.6a.51.51,0,0,1,.44.37,8.25,8.25,0,0,0,.65,1.53.53.53,0,0,1-.06.59L27.3,98.22a.54.54,0,0,0,0,.72l1.45,1.45a.54.54,0,0,0,.72,0l2.12-1.7a.54.54,0,0,1,.61,0,8.28,8.28,0,0,0,1.78.75.54.54,0,0,1,.4.46l.31,2.86a.54.54,0,0,0,.53.48h2.05a.54.54,0,0,0,.53-.48l.31-2.83a.53.53,0,0,1,.39-.45,8.28,8.28,0,0,0,2-.83.53.53,0,0,1,.6.05l2.15,1.73a.54.54,0,0,0,.72,0l1.45-1.45a.54.54,0,0,0,0-.72L43.71,96a.54.54,0,0,1,0-.6A8.28,8.28,0,0,0,44.28,94a.54.54,0,0,1,.46-.38l2.9-.33c.27,0,.37-.26.37-.53V90.7C48,90.42,47.9,90.19,47.63,90.16ZM36.36,95.75a4.27,4.27,0,1,1,4.27-4.27A4.27,4.27,0,0,1,36.36,95.75Z"/><path class="cls-12" d="M233.63,44.93l-2.78-.31a.5.5,0,0,1-.43-.4,8.24,8.24,0,0,0-.74-2,.54.54,0,0,1,.07-.59l1.74-2.15a.54.54,0,0,0,0-.72L230,37.33a.54.54,0,0,0-.72,0L227.18,39a.53.53,0,0,1-.6,0,8.28,8.28,0,0,0-1.85-.81.53.53,0,0,1-.37-.46l-.3-2.68c0-.27-.26-.37-.53-.37h-2.05c-.27,0-.5.1-.53.37l-.29,2.65a.51.51,0,0,1-.41.44,8.24,8.24,0,0,0-2.06.84.53.53,0,0,1-.6,0l-2.06-1.66a.54.54,0,0,0-.72,0l-1.45,1.45a.54.54,0,0,0,0,.72L215,41.6a.53.53,0,0,1,0,.59,8.28,8.28,0,0,0-.79,2,.54.54,0,0,1-.47.4l-2.67.3a.48.48,0,0,0-.4.53v2.05a.48.48,0,0,0,.4.53l2.87.32a.51.51,0,0,1,.44.37,8.25,8.25,0,0,0,.65,1.53.53.53,0,0,1-.06.59L213.3,53a.54.54,0,0,0,0,.72l1.45,1.45a.54.54,0,0,0,.72,0l2.12-1.7a.54.54,0,0,1,.61,0,8.28,8.28,0,0,0,1.78.75.54.54,0,0,1,.4.46l.31,2.86a.54.54,0,0,0,.53.48h2.05a.54.54,0,0,0,.53-.48l.31-2.83a.53.53,0,0,1,.39-.45,8.28,8.28,0,0,0,2-.83.53.53,0,0,1,.6.05l2.15,1.73a.54.54,0,0,0,.72,0l1.45-1.45a.54.54,0,0,0,0-.72l-1.77-2.19a.54.54,0,0,1,0-.6,8.28,8.28,0,0,0,.61-1.43.54.54,0,0,1,.46-.38l2.9-.33c.27,0,.37-.26.37-.53V45.46C234,45.19,233.9,45,233.63,44.93Zm-11.27,5.59a4.27,4.27,0,1,1,4.27-4.27A4.27,4.27,0,0,1,222.36,50.52Z"/><polygon class="cls-5" points="364 81 364 105.84 338.69 81 364 81"/><polygon class="cls-5" points="308 81 308 97 292 81 308 81"/><path class="cls-17" d="M147.72,83c-3.94,0-21.37,0-21.37,0s-4.23-8.11-8.24-15.12L117.75,84l-35-35a19.2,19.2,0,0,1,3-.71c3.28-.55,6.65-1,11-1.36V47c0,1,2.19,1.83,4.84,1.83s4.81-.83,4.81-1.85v0c4.56.4,6.54.46,9.47.8a9.61,9.61,0,0,1,7,4.19l.16-.08,10.11,21.24s9.86,3,14.85,4C148,78.7,149,81,147.72,83Z"/><path class="cls-14" d="M108.89,94.89,76.72,62.72a8.46,8.46,0,0,1,4-.72h20.78c3.45,0,4.77,2.58,5.17,7.43C106.87,72.17,108,85,108.89,94.89Z"/><path class="cls-18" d="M273,131.82l-13,.12L250,132c-6.71,0-8.1-4-8.1-8.73,0-2.76,1.87-5.22,4.77-6.77a5,5,0,0,1-2.07-4,3,3,0,0,1,0-.42,4.79,4.79,0,0,1,1.21-2.84,4.87,4.87,0,0,1,3.71-1.69,5.51,5.51,0,0,1,1.36.19,16.54,16.54,0,0,1,.4-3.37,15.36,15.36,0,0,1,.63-2,10.89,10.89,0,0,1,.46-1c1.4-2.77,3.63-4.56,6.15-4.56a5,5,0,0,1,1.45.21c2.61.73,4.75,3.43,5.69,7,3.8.16,6.81,2.71,6.81,5.83a5.05,5.05,0,0,1-1.17,3.19,6.17,6.17,0,0,1,3.87,5.36,5.06,5.06,0,0,1-.51,2.18,5.29,5.29,0,0,1,2.31,4.12C277,125.73,277.88,131.75,273,131.82Z"/><path class="cls-19" d="M273,131.82l-13,.12v-35c2.61.73,4.75,3.43,5.69,7,3.8.16,6.81,2.71,6.81,5.83a5.05,5.05,0,0,1-1.17,3.19,6.17,6.17,0,0,1,3.87,5.36,5.06,5.06,0,0,1-.51,2.18,5.29,5.29,0,0,1,2.31,4.12C277,125.73,277.88,131.75,273,131.82Z"/></svg>