<svg xmlns="http://www.w3.org/2000/svg" viewBox="0 0 400 140"><defs><style>.cls-1{isolation:isolate;}.cls-2{fill:#bad80a;}.cls-3{fill:#d1e55c;}.cls-12,.cls-4{fill:#543b76;}.cls-5{fill:#2b6dcf;}.cls-6{fill:#80bceb;}.cls-7{fill:#aad2f2;}.cls-8{fill:#2b8fde;}.cls-9{fill:#4d4d4d;}.cls-10{fill:#7750a3;}.cls-11{fill:#ae96c8;}.cls-12{mix-blend-mode:multiply;}</style></defs><title>common-data-service-learn-about</title><g class="cls-1"><g id="ICONS"><path class="cls-2" d="M119.82,19.12,115,22.4a24,24,0,0,0-3.1-2.48l1.41-5.49a1.5,1.5,0,0,0-.77-2.09l-3.44-1.62a1.31,1.31,0,0,0-1.79.8l-3.43,4.82-3.46-1-.63-5.59a1.56,1.56,0,0,0-1.4-1.51L94.31,8c-.58,0-1.2.53-1.52,1.39L91.65,14.9c-1.17.24-2.64.47-3.83.7l-3-5.11a1.4,1.4,0,0,0-1.72-.67l-3.57,1.31a1.31,1.31,0,0,0-1,1.71l1.19,5.9a12.09,12.09,0,0,0-3.31,1.9L72,16.94a1.41,1.41,0,0,0-2-.11l-2.76,2.8a.78.78,0,0,0-.41.44,1.67,1.67,0,0,0,0,1.3l3.27,5.13a12.08,12.08,0,0,0-2.19,3.11l-5.76-1.72a2.12,2.12,0,0,0-1.8.79L58.7,32.42a1.41,1.41,0,0,0,.5,1.77L64,37.35c-.35,1.15-.41,2.6-.76,3.77l-5.88.61a1.34,1.34,0,0,0-1.23,1.4l-.11,2.43,0,1.36v0a1.33,1.33,0,0,0,1.09,1.47l5.8,1.15a17,17,0,0,0,.69,4.13L58.2,56.39a1.82,1.82,0,0,0-.69,2L58.81,62a1.8,1.8,0,0,0,2,1l5.61-1.21c.52,1.2,1.36,2.11,1.9,3.31l-3.71,4.51a1.8,1.8,0,0,0,.19,2.06l2.5,2.74a1.8,1.8,0,0,0,2,.39l4.84-3.58a22.83,22.83,0,0,0,3.39,2.5l-1.73,5.78a1.32,1.32,0,0,0,.81,1.8l3.44,1.61a1.94,1.94,0,0,0,2.07-.49l3.15-5.12,3.46,1,.61,5.88a2,2,0,0,0,1.41,1.24l4.08.18c.59,0,1.48-.52,1.51-1.09l1.15-5.81c1.18-.23,2.65-.46,3.83-.7l3,5.11a1.38,1.38,0,0,0,1.72.66l3.86-1.27a1.78,1.78,0,0,0,1-1.72l-1.21-5.62c.91-.84,2.11-1.36,3-2.2l4.5,4a1.8,1.8,0,0,0,2.06-.21l2.3-1.89.74-.61a2.47,2.47,0,0,0,.1-2l-3.28-4.84c.92-1.13,1.56-2.28,2.49-3.39l5.47,1.71a1.42,1.42,0,0,0,1.8-.81l1.61-3.42a1.68,1.68,0,0,0-.49-2.08l-4.82-3.15a14.58,14.58,0,0,0,.76-3.77l5.88-.6a1.39,1.39,0,0,0,1.52-1.41l.16-3.49v-.31a1.45,1.45,0,0,0-.39-1.1,1.42,1.42,0,0,0-1-.42L126.29,44a10.4,10.4,0,0,0-.69-4.12L131,37.18a1.4,1.4,0,0,0,.66-1.72l-1.29-3.86a2.08,2.08,0,0,0-1.71-1l-5.9,1.2a10.37,10.37,0,0,0-1.92-3L124.58,24a1.83,1.83,0,0,0,.08-1.76l-2.79-3A1.4,1.4,0,0,0,119.82,19.12ZM100.39,52.94l-.39.36a9,9,0,0,1-12.7-12.7l.36-.39a9,9,0,0,1,12.73,12.73Z"/><path class="cls-3" d="M119.82,19.12,115,22.4a24,24,0,0,0-3.1-2.48l1.41-5.49a1.5,1.5,0,0,0-.77-2.09l-3.44-1.62a1.31,1.31,0,0,0-1.79.8l-3.43,4.82-3.46-1-.63-5.59a1.56,1.56,0,0,0-1.4-1.51L94.31,8c-.58,0-1.2.53-1.52,1.39L91.65,14.9c-1.17.24-2.64.47-3.83.7l-3-5.11a1.4,1.4,0,0,0-1.72-.67l-3.57,1.31a1.31,1.31,0,0,0-1,1.71l1.19,5.9a12.09,12.09,0,0,0-3.31,1.9L72,16.94a1.41,1.41,0,0,0-2-.11l-2.76,2.8a.78.78,0,0,0-.41.44L87.3,40.61l.36-.39a9,9,0,0,1,12.73,12.73l-.39.36,21.54,21.54.74-.61a2.47,2.47,0,0,0,.1-2l-3.28-4.84c.92-1.13,1.56-2.28,2.49-3.39l5.47,1.71a1.42,1.42,0,0,0,1.8-.81l1.61-3.42a1.68,1.68,0,0,0-.49-2.08l-4.82-3.15a14.58,14.58,0,0,0,.76-3.77l5.88-.6a1.39,1.39,0,0,0,1.52-1.41l.16-3.49v-.31a1.45,1.45,0,0,0-.39-1.1,1.42,1.42,0,0,0-1-.42L126.29,44a10.4,10.4,0,0,0-.69-4.12L131,37.18a1.4,1.4,0,0,0,.66-1.72l-1.29-3.86a2.08,2.08,0,0,0-1.71-1l-5.9,1.2a10.37,10.37,0,0,0-1.92-3L124.58,24a1.83,1.83,0,0,0,.08-1.76l-2.79-3A1.4,1.4,0,0,0,119.82,19.12Z"/><path class="cls-2" d="M301.27,85a1.25,1.25,0,0,0,1.36.5l2.5-.8a1.34,1.34,0,0,0,.66-1.6L305,80a1.86,1.86,0,0,1,.71-2.2c.3-.48.84-.82,1.14-1.3a2.25,2.25,0,0,1,2.2-.32l3.35,1.07a1.52,1.52,0,0,0,1.32-.52L315,74.12c.15-.24,0-1-.76-1.47l-2.9-1.79a1.64,1.64,0,0,1-.86-1.86,9,9,0,0,0,0-1.75c-.19-.78,0-1.66,1.34-2.18l2.8-1.28a1.59,1.59,0,0,0,.65-1.6l-1-2.65A1,1,0,0,0,313,59l0,0-3.12.79a1.92,1.92,0,0,1-2.23-.71c-.48-.3-.82-.84-1.3-1.14a3.22,3.22,0,0,1-.56-2.35l1.16-3a1.45,1.45,0,0,0-.61-1.72l-2.48-.86a1.22,1.22,0,0,0-1.57.37l-1.55,3a2,2,0,0,1-2,1.1,6.22,6.22,0,0,0-1.66,0l-.24-.15a2.12,2.12,0,0,1-2-1.17l-1.4-3.18a1.25,1.25,0,0,0-1.36-.5l-2.65,1a1,1,0,0,0-.52,1.31l0,0,.59,3.37c.28,1.17,0,1.66-.56,2-.3.48-.84.82-1.14,1.3a2.11,2.11,0,0,1-2.35.55l-3.2-1.31a1.56,1.56,0,0,0-1.43.8l-1.3,2.57a1.78,1.78,0,0,0,.76,1.47l2.9,1.79c1,.6,1.3,1.14.85,1.87a13.71,13.71,0,0,0,.22,1.81c0,.61-.11,1.26-1.43,1.78l-3,1.52a1.25,1.25,0,0,0-.51,1.36l1,2.65a1.28,1.28,0,0,0,1.21.75l3.28-1c1.17-.28,1.66,0,2,.56a18,18,0,0,1,1.39,1.53,1.8,1.8,0,0,1,.7,2.11l-1.31,3.2a1.56,1.56,0,0,0,.76,1.47l2.33,1.1a1.22,1.22,0,0,0,1.57-.37l1.59-3.05a2,2,0,0,1,2-1.1l1.9.17c.78-.18,1.27.11,1.93,1.19L301.25,85m2.59-19.79A7.07,7.07,0,0,1,299.73,74a6.57,6.57,0,0,1-8.89-4.12,6.75,6.75,0,0,1,4-8.58,6.84,6.84,0,0,1,8.94,3.7l.06.16"/><path class="cls-4" d="M321.4,53.1a1,1,0,0,0,1.06.39l1.94-.62a1,1,0,0,0,.51-1.25l-.57-2.43a1.45,1.45,0,0,1,.5-1.73c.23-.38.65-.64.89-1a1.75,1.75,0,0,1,1.71-.25L330,47a1.18,1.18,0,0,0,1-.41l1-2a1,1,0,0,0-.59-1.15l-2.22-1.39a1.27,1.27,0,0,1-.67-1.45s0-2.58,1-3l2.17-1a1.24,1.24,0,0,0,.51-1.24l-.81-2.06a.77.77,0,0,0-1-.41l-.05,0-2.44.58a1.49,1.49,0,0,1-1.74-.55c-.38-.23-.64-.65-1-.88a2.5,2.5,0,0,1-.38-1.84l.9-2.3a1.13,1.13,0,0,0-.48-1.33L323.33,26a1,1,0,0,0-1.22.29l-1.19,2.36a1.6,1.6,0,0,1-1.57.85,4.84,4.84,0,0,0-1.29,0s-1.44-.49-1.72-1.06l-1-2.47a1,1,0,0,0-1.06-.39l-2.06.81a.77.77,0,0,0-.36,1v0L312.3,30c.22.91,0,1.29-.44,1.55-.23.38-.65.64-.89,1a1.64,1.64,0,0,1-1.83.43l-2.49-1a1.22,1.22,0,0,0-1.15.59l-1,2a1.38,1.38,0,0,0,.59,1.15l2.26,1.39c.75.46,1,.89.66,1.45a10.52,10.52,0,0,0,.17,1.41c0,.49-.09,1-1.12,1.39l-2.29,1.19a1,1,0,0,0-.39,1.06l.81,2.06a1,1,0,0,0,.94.58l2.55-.76c.91-.22,1.29,0,1.55.44a14,14,0,0,1,1.08,1.19,1.4,1.4,0,0,1,.53,1.6l-1,2.49a1.21,1.21,0,0,0,.59,1.14l1.81.86a1,1,0,0,0,1.22-.29l1.21-2.37a1.59,1.59,0,0,1,1.56-.83l1.48.13c.61-.14,1,.09,1.5.93l1.18,2.29m2-15.41a5.5,5.5,0,0,1-3.2,6.86,5.11,5.11,0,0,1-6.69-2.73q-.1-.23-.17-.47a5.25,5.25,0,0,1,3.08-6.67,5.32,5.32,0,0,1,7,2.88l0,.12"/><path class="cls-5" d="M329.49,76.92c.32,0,1.46,0,1.46,0a.74.74,0,0,0,.59-.76l.07-1.78a1,1,0,0,1,.72-1.09c.23-.21,1.53-.72,2-.36L336,74a.85.85,0,0,0,.79-.08l1.06-1.18a.77.77,0,0,0-.19-.9l-1.28-1.39c-.31-.29-.29-1.24-.29-1.24a3.09,3.09,0,0,1,.35-1c.2-.44.28-.63,1-.75l1.69-.27a.88.88,0,0,0,.59-.76l-.16-1.57a.55.55,0,0,0-.62-.48h0l-1.79-.07a1.07,1.07,0,0,1-1.09-.72c-.21-.23-.31-.57-.52-.8a1.79,1.79,0,0,1,.06-1.34L336.65,60a.81.81,0,0,0-.07-1l-1.2-.83a.68.68,0,0,0-.89,0l-1.29,1.4a1.14,1.14,0,0,1-1.24.28c-.28-.13-1-.38-1-.38a1.18,1.18,0,0,1-.86-.93l-.27-1.92a.69.69,0,0,0-.65-.47l-1.57.16a.55.55,0,0,0-.48.62v0L327,58.83c0,.67-.26.88-.6,1a2.28,2.28,0,0,0-.81.53,1.17,1.17,0,0,1-1.34-.06l-1.52-1.18a.87.87,0,0,0-.9.19l-1.06,1.19a1,1,0,0,0,.19.9l1.32,1.36c.43.47.45.59.31,1.15s-.27.53-.28,1-.25.66-1,.74l-1.8.37a.7.7,0,0,0-.48.65l.16,1.57a.71.71,0,0,0,.53.58h1.9c.67,0,.88.26,1,.6a10,10,0,0,1,.52,1,1,1,0,0,1,.06,1.23L322,73.15a.87.87,0,0,0,.19.9l1.08.94a.68.68,0,0,0,.89,0l1.29-1.4a1.14,1.14,0,0,1,1.24-.28,5.39,5.39,0,0,0,1,.38c.64.18.66.25.86.93l.37,1.8S329.17,76.92,329.49,76.92Zm3.75-10.72a3.93,3.93,0,0,1-3.53,4.1,3.65,3.65,0,0,1-4.07-3.17q0-.17,0-.35a3.75,3.75,0,0,1,3.41-4,3.8,3.8,0,0,1,4.21,3.34v.07"/><path class="cls-6" d="M286.34,18.9a5.88,5.88,0,0,1-.87.07H178.51c-.33,0-.64,0-.93,0l-1.1-.11V49.27l.87.26,16-6.56a6.45,6.45,0,0,1,2.64-.55,6.58,6.58,0,0,1,6,3.85,6.54,6.54,0,0,1-3.28,8.65l-19,9.42a6.56,6.56,0,0,1-2.21.58l-.55,0c-.15,0-.3,0-.45,0V94a2,2,0,0,0,2,2h30.92c1.65-5.23,6.09-9,11.3-9s9.65,3.77,11.3,9h20.4c1.65-5.23,6.09-9,11.3-9s9.65,3.77,11.3,9h10.42a2,2,0,0,0,2-2V18.72Z"/><polygon class="cls-7" points="287.49 61 243.49 16.63 287.49 17 287.49 61"/><path class="cls-5" d="M127,100.43V139h11.09c1.54-13.16,3.6-30.57,3.94-32.83.43-2.76,4.7-2.76,5.12,0,.35,2.26,2.74,19.67,4.45,32.83H162V98h6l-.33-12.33L167,60.47l8.42,2.19a4.54,4.54,0,0,0,1.93.25,4.49,4.49,0,0,0,1.48-.38l19-9.45a4.54,4.54,0,1,0-3.75-8.27l-16.63,6.83L161.56,47c-.93-.28-1.91-.57-2.94-.86l0,0c-2.06-.58-4.18-1.16-5.79-1.59l-2.7-.72-6,12.48H144l-6-12.48s-5.77,1.3-9.89,2.39l-1.63.44A8.84,8.84,0,0,0,121,51a11.43,11.43,0,0,0-1.28,4.42c-.61,6.36-.6,20.59-1.12,26.31-.19,2-.2,8.56,2.07,11.48A88.76,88.76,0,0,0,127,100.43Z"/><path class="cls-8" d="M197.84,53.08l-19,9.45a4.49,4.49,0,0,1-1.48.38,4.54,4.54,0,0,1-1.93-.25L167,60.47l.67,25.2L168,98,121,51a8.84,8.84,0,0,1,5.55-4.38l1.63-.44c4.12-1.09,9.89-2.39,9.89-2.39l6,12.48h.1l6-12.48,2.7.72c1.61.43,3.73,1,5.79,1.59l0,0c1,.29,2,.58,2.94.86l15.9,4.68,16.63-6.83a4.54,4.54,0,1,1,3.75,8.27Z"/><rect class="cls-9" x="165.49" y="15" width="133" height="5"/><ellipse class="cls-5" cx="143.98" cy="28.46" rx="10" ry="12.46"/><path class="cls-9" d="M209.79,95H178.51a1,1,0,0,1-1-1V64.9l-.55,0a6.58,6.58,0,0,1-2.11-.35l-.34-.09V94a4,4,0,0,0,4,4H209A14.61,14.61,0,0,1,209.79,95Z"/><ellipse class="cls-5" cx="220.74" cy="100.5" rx="10" ry="11.5"/><path class="cls-5" d="M240.49,129.86a3.07,3.07,0,0,1-2.87,3H203.94a3.07,3.07,0,0,1-3-3c-.41-8.21-1.5-18.62,8.49-21.1a14.09,14.09,0,0,0,9.42,5.4,13.3,13.3,0,0,0,1.55.09,13.94,13.94,0,0,0,11-5.61C242,110.9,240.91,121.52,240.49,129.86Z"/><path class="cls-9" d="M252.79,95h-21.1a14.61,14.61,0,0,1,.84,3H252A14.61,14.61,0,0,1,252.79,95Z"/><path class="cls-9" d="M285.46,17H178.51c-2.21,0-4-1.19-4,1V48.68l2.87.84.13-.05V19.91c.32,0,.66.05,1,.05H285.46a6.78,6.78,0,0,0,1-.08V94a1,1,0,0,1-1,1H274.69a14.61,14.61,0,0,1,.84,3h9.94a4,4,0,0,0,4-4V17C289.49,14.79,287.68,17,285.46,17Z"/><ellipse class="cls-5" cx="263.74" cy="100.5" rx="10" ry="11.5"/><path class="cls-5" d="M283.49,129.86a3.07,3.07,0,0,1-3,3h-33.6a3.07,3.07,0,0,1-3-3c-.32-6.36-1-14,3.29-18.32a10.84,10.84,0,0,1,5.2-2.78,14,14,0,0,0,11,5.49,10.92,10.92,0,0,0,1.29-.07,14,14,0,0,0,9.76-5.54C285,110.9,283.91,121.52,283.49,129.86Z"/><path class="cls-4" d="M250.49,39.73V73.38c0,1.81-2.07,3.43-5.42,4.61a40.25,40.25,0,0,1-12.58,1.9H232V80h-.32c-10.09-.11-18.18-3.07-18.18-6.61V39.73Z"/><path class="cls-10" d="M250.49,39.73V73.38c0,1.81-2.07,3.43-5.42,4.61a40.25,40.25,0,0,1-12.58,1.9V39.73Z"/><path class="cls-11" d="M250.49,39.48c0,3.58-8.28,6.48-18.5,6.48s-18.5-2.9-18.5-6.48S222,33,232.23,33s18.25,2.9,18.25,6.48"/><path class="cls-10" d="M245,39.44c0,.56-.47,1.09-1.3,1.56a7.22,7.22,0,0,1-1.11.5,38.13,38.13,0,0,1-21.18,0,7.22,7.22,0,0,1-1.11-.5c-.83-.47-1.3-1-1.3-1.56,0-2,5.82-3.56,13-3.56S245,37.47,245,39.44Z"/><path class="cls-12" d="M242.64,41.5a38.13,38.13,0,0,1-21.18,0,38.13,38.13,0,0,1,21.18,0Z"/></g></g></svg>